<?xml version="1.0" encoding="UTF-8"?>
<svg version="1.1" xmlns="http://www.w3.org/2000/svg" width="539" height="422">
<path d="M0 0 C177.87 0 355.74 0 539 0 C539 139.26 539 278.52 539 422 C361.13 422 183.26 422 0 422 C0 282.74 0 143.48 0 0 Z " fill="#FCFDFD" transform="translate(0,0)"/>
<path d="M0 0 C5.11805118 2.09770465 8.98122184 5.34605034 12 10 C12 10.66 12 11.32 12 12 C12.61085953 11.98223511 13.22171906 11.96447021 13.85108948 11.94616699 C20.22627202 11.76876494 26.60075064 11.64835455 32.9777832 11.56054688 C35.35535167 11.52038907 37.73272348 11.46584935 40.10961914 11.39648438 C43.53320854 11.29909718 46.95418147 11.2539955 50.37890625 11.21875 C51.43646622 11.17745972 52.49402618 11.13616943 53.58363342 11.09362793 C60.83771351 11.0892469 60.83771351 11.0892469 64.081604 13.63111877 C65.86810585 15.67399792 67.434184 17.78517879 69 20 C69.91994178 21.02172826 70.86070866 22.02531696 71.82666016 23.00366211 C72.72175293 23.91897705 73.6168457 24.83429199 74.5390625 25.77734375 C76.04974846 27.31297901 77.56279658 28.84612394 79.08007812 30.37524414 C80.11807167 31.42488395 81.15154975 32.47900667 82.18066406 33.53735352 C83.68629768 35.08555006 85.2046574 36.62015955 86.7265625 38.15234375 C87.61939941 39.05976318 88.51223633 39.96718262 89.43212891 40.90209961 C92.09040626 43.07386015 93.6265223 43.69376867 97 44 C97 42.68 97 41.36 97 40 C98.3744075 39.9845388 98.3744075 39.9845388 99.77658081 39.96876526 C110.52321425 39.84739501 121.26980808 39.72281448 132.01638031 39.59614182 C133.92228855 39.57371203 135.82819778 39.55136555 137.73410797 39.52910233 C158.87415778 39.28212768 180.01068853 39.02284749 201.14608765 38.50271606 C222.10090678 38.00193383 243.06348475 37.77853266 264.02374268 37.67336941 C268.70979304 37.64979285 273.39542228 37.61866233 278.08123779 37.56539917 C306.44305905 37.25454705 331.85500514 38.76295151 358 51 C359.16402344 51.54398438 360.32804687 52.08796875 361.52734375 52.6484375 C379.62431734 61.81995687 395.79037841 74.81566346 408 91 C408.71671875 91.93972656 409.4334375 92.87945312 410.171875 93.84765625 C420.29030816 107.75153161 428.50384241 123.37378322 433 140 C433.29261719 141.04800781 433.58523438 142.09601563 433.88671875 143.17578125 C435.48502824 149.43647647 436.44294697 155.71650188 437.1875 162.125 C437.27153076 162.84083252 437.35556152 163.55666504 437.44213867 164.29418945 C441.39776113 201.97309702 428.36054176 241.52298916 405.26953125 271.24609375 C402.30105761 274.84811425 399.21947077 278.32658064 396.04296875 281.74609375 C394.62324156 283.31240845 393.26157259 284.93252833 391.94921875 286.58984375 C389.01522683 290.21764538 385.58729039 293.03294206 382 296 C380.98679687 296.83917969 379.97359375 297.67835938 378.9296875 298.54296875 C339.23112805 330.86126027 291.94903101 340.77967516 241.78071618 340.40557575 C237.76100104 340.38005583 233.74126498 340.37818128 229.72148132 340.37347412 C222.15741533 340.36118931 214.59358892 340.32857091 207.02962703 340.28807616 C198.39800219 340.2428984 189.76636407 340.22125749 181.13464987 340.20129442 C163.42293772 340.15981973 145.7115527 340.08665632 128 340 C128 326.47 128 312.94 128 299 C134.14625 298.855625 140.2925 298.71125 146.625 298.5625 C150.35033716 298.46417906 154.07558088 298.36476423 157.80078125 298.26171875 C163.2155373 298.11279047 168.62589975 297.97774096 174.04296875 297.95703125 C186.70652923 297.80967804 199.08595116 295.75961864 211.5625 293.75 C212.46594147 293.60560486 213.36938293 293.46120972 214.30020142 293.31243896 C231.14396907 290.59010175 248.15268584 287.40464154 264.3125 281.8125 C265.15603027 281.52479736 265.99956055 281.23709473 266.86865234 280.94067383 C302.2063277 268.61410294 335.01424579 251.27076403 361 224 C357.54789845 226.65732949 354.54293546 229.45344476 351.5625 232.625 C304.92333453 279.53932279 222.75477538 292.71566322 159.57113647 293.09283447 C155.23469092 293.10097919 150.89895796 293.0832838 146.5625 293.0625 C140.436875 293.041875 134.31125 293.02125 128 293 C128 279.14 128 265.28 128 251 C132.49979492 250.98541748 136.99958984 250.97083496 141.63574219 250.95581055 C156.56348715 250.90529732 171.49113024 250.83881979 186.41877365 250.76428509 C195.46243873 250.7195138 204.50606606 250.68005732 213.54980469 250.65356445 C221.44168273 250.63043189 229.33343943 250.59686717 237.22522092 250.55129844 C241.39537111 250.52756961 245.56540267 250.50870887 249.73561859 250.50238609 C290.90778903 250.43162212 329.98210923 244.70663883 361 215 C364.219942 211.48228907 367.1485766 207.8202468 370 204 C370.62648438 203.18789063 371.25296875 202.37578125 371.8984375 201.5390625 C384.5436892 184.47625562 391.30387108 161.11684736 388.50390625 139.9375 C387.17183678 131.04601148 385.02654128 123.0988387 381 115 C380.54625 114.06671875 380.0925 113.1334375 379.625 112.171875 C376.16829815 105.44633554 371.98817401 99.67047507 367 94 C366.33355469 93.23816406 365.66710937 92.47632813 364.98046875 91.69140625 C350.44369762 76.12977927 327.24850578 65.831204 305.97170365 64.91241252 C303.68905807 64.8817259 301.40856563 64.88288068 299.12574768 64.89561462 C298.25561458 64.89632117 297.38548148 64.89702772 296.48898071 64.89775568 C293.58580667 64.90111878 290.68269858 64.91146865 287.77954102 64.92163086 C285.692994 64.92514873 283.60644599 64.92811526 281.51989746 64.93057251 C277.03248555 64.93623789 272.5450858 64.94424624 268.05768013 64.95359612 C260.96006354 64.96678901 253.86250116 64.96503824 246.76487732 64.95936584 C245.5661729 64.95844576 244.36746847 64.95752568 243.13243967 64.95657772 C239.44180862 64.95360695 235.75117776 64.95044221 232.06054688 64.94726562 C216.78106795 64.9344675 201.50184609 64.93253393 186.22241211 64.97583008 C175.07215992 65.0073199 163.92229807 65.01064495 152.77203506 64.98107058 C146.87394667 64.9665201 140.97663937 64.96635123 135.07861519 65.00047112 C129.53207971 65.03228418 123.98682654 65.02684815 118.44031525 64.99296951 C116.40700155 64.98715428 114.37359536 64.99497548 112.34039879 65.01756096 C96.99970524 65.17676454 96.99970524 65.17676454 92.08639336 62.28543282 C90.05180796 60.29126961 88.54675101 58.38173614 87 56 C85.93052362 54.7344284 84.84767929 53.47991142 83.74609375 52.2421875 C82.8950708 51.2536377 82.8950708 51.2536377 82.02685547 50.24511719 C79.53807309 47.48833054 76.92499402 44.86841648 74.28515625 42.2578125 C73.78035736 41.75852234 73.27555847 41.25923218 72.75546265 40.74481201 C70.65487609 38.67195693 68.55055303 36.60297871 66.44213867 34.53808594 C64.88550349 33.01146331 63.33499536 31.47882953 61.78515625 29.9453125 C60.86613525 29.04312988 59.94711426 28.14094727 59.00024414 27.21142578 C57 25 57 25 57 23 C42.15 23 27.3 23 12 23 C11.67 24.32 11.34 25.64 11 27 C7.23588876 31.40938745 3.52270476 34.46123339 -2.32421875 35.35546875 C-7.87531141 35.67000233 -11.77466316 34.81669079 -16.3046875 31.54296875 C-19.72489377 28.4301082 -21.62976592 25.40013819 -22.33984375 20.796875 C-22.56140063 15.58585725 -21.66683595 11.55942921 -19 7 C-13.0945619 0.94419195 -8.52035401 -1.10864255 0 0 Z " fill="#383BB6" transform="translate(26,66)"/>
<path d="M0 0 C27.5739842 -0.046408 55.1479589 -0.08204547 82.72197437 -0.10362434 C95.5266586 -0.11391257 108.33131803 -0.12792572 121.13598633 -0.15087891 C132.30374646 -0.17088819 143.47148863 -0.18373425 154.63926619 -0.18817699 C160.54593392 -0.19077166 166.45255026 -0.19681849 172.35920143 -0.21146011 C177.93316823 -0.22516346 183.5070631 -0.22919721 189.08104515 -0.22621536 C191.11295336 -0.22675988 193.14486431 -0.2306606 195.17675781 -0.23841095 C212.77425036 -0.3021693 229.87860558 0.52851476 246.87646484 5.39501953 C249.15798044 6.04500753 251.44766035 6.66026534 253.73828125 7.27734375 C296.50113655 19.11878319 334.89087525 46.38102538 360 83 C360.43119141 83.62422852 360.86238281 84.24845703 361.30664062 84.89160156 C390.38582954 127.57234659 398.4708826 178.57697462 390 229 C388.58867363 235.87643678 386.43979608 242.42746318 384 249 C383.63455078 249.99660645 383.26910156 250.99321289 382.89257812 252.02001953 C366.08601821 297.27216505 335.22576383 335.55934524 292 358 C291.2692627 358.38365723 290.53852539 358.76731445 289.78564453 359.16259766 C271.47338084 368.65937901 252.08020884 375.23174307 232.0625 380.125 C231.19882812 380.33745361 230.33515625 380.54990723 229.4453125 380.76879883 C228.25228516 381.0417981 228.25228516 381.0417981 227.03515625 381.3203125 C226.3481665 381.47773926 225.66117676 381.63516602 224.95336914 381.79736328 C222.7369065 382.02729254 221.11545266 381.65659112 219 381 C219.8048584 380.73606445 219.8048584 380.73606445 220.62597656 380.46679688 C243.43265018 372.93341525 264.9082779 363.79920419 284 349 C284.85207031 348.36964844 285.70414062 347.73929687 286.58203125 347.08984375 C319.0909815 322.3536312 342.08705888 282.59574914 348.30859375 242.31640625 C353.2864603 203.05928497 344.64690515 164.34693907 321.421875 132.0625 C316.94074215 126.39603523 312.01901303 121.1889091 307 116 C306.38511719 115.33355469 305.77023437 114.66710937 305.13671875 113.98046875 C283.07622653 90.60620031 244.90288082 73.51732712 212.82490158 71.88963151 C206.53930054 71.713851 200.25213199 71.763502 193.96484375 71.79223633 C191.8513649 71.7944007 189.73788485 71.79558456 187.62440491 71.79586792 C183.09503827 71.79791402 178.56572867 71.80557524 174.03637695 71.8173008 C166.87643521 71.83451803 159.71659386 71.83119495 152.55664062 71.82365417 C132.20453383 71.80450256 111.85256018 71.79794262 91.50048828 71.84545898 C80.24369579 71.87157254 68.9871901 71.8729773 57.73039532 71.84631175 C51.77779215 71.83330162 45.82581153 71.83341956 39.8732605 71.8641758 C34.2849261 71.89299939 28.69754934 71.88976051 23.1092205 71.86156845 C21.05648271 71.85705782 19.00367877 71.86459212 16.95103645 71.88489723 C14.15367921 71.91083984 11.3597639 71.89401712 8.5625 71.86628723 C7.74578292 71.88415041 6.92906584 71.90201359 6.08759975 71.92041808 C3.81640625 71.87136555 3.81640625 71.87136555 0 71 C-1.94769215 68.78272734 -2.78640004 66.75708994 -4 64 C-5.75583885 61.77488293 -5.75583885 61.77488293 -7.64453125 59.87890625 C-8.32193359 59.17056641 -8.99933594 58.46222656 -9.69726562 57.73242188 C-10.39529297 57.01634766 -11.09332031 56.30027344 -11.8125 55.5625 C-13.19541002 54.1276497 -14.57692949 52.69145785 -15.95703125 51.25390625 C-16.63072754 50.55410645 -17.30442383 49.85430664 -17.99853516 49.13330078 C-20.58038437 46.38138588 -23.03242211 43.52950532 -25.46362305 40.64428711 C-27.09819686 38.76896431 -27.09819686 38.76896431 -30 37 C-31.8253125 37.061875 -31.8253125 37.061875 -33.6875 37.125 C-38.52723786 37.24086849 -42.04055112 35.71882156 -46 33 C-48.375 30.5 -48.375 30.5 -50 28 C-50.4125 27.401875 -50.825 26.80375 -51.25 26.1875 C-52.91785687 21.32291745 -52.33460074 17.09674688 -50.875 12.3125 C-48.19291506 7.57414994 -44.28691286 3.76230429 -39 2 C-33.46759895 1.46803836 -28.82975332 2.29087366 -24 5 C-20.20668427 8.24730817 -17.95859746 12.11115296 -17 17 C-17.12349605 20.72438087 -17.43875763 24.41440056 -18.68701172 27.94091797 C-19.23459612 30.01795481 -19.23459612 30.01795481 -17.98364258 31.58398438 C-17.19703247 32.33131836 -17.19703247 32.33131836 -16.39453125 33.09375 C-15.82283203 33.64933594 -15.25113281 34.20492187 -14.66210938 34.77734375 C-14.05173828 35.34582031 -13.44136719 35.91429687 -12.8125 36.5 C-12.22146484 37.06847656 -11.63042969 37.63695312 -11.02148438 38.22265625 C-9.87206548 39.32722602 -8.71742748 40.42639567 -7.55712891 41.51953125 C-6.24486685 42.76718837 -4.96768632 44.05159289 -3.69921875 45.34375 C-2.08685063 47.08326401 -2.08685063 47.08326401 0 48 C0 45.69 0 43.38 0 41 C0.73802856 40.99191315 1.47605713 40.98382629 2.2364502 40.97549438 C44.9809114 40.63368089 44.9809114 40.63368089 87.6875 39 C89.27026101 38.91173614 90.85302467 38.82351978 92.43579102 38.73535156 C93.20693741 38.6923291 93.9780838 38.64930664 94.77259827 38.60498047 C95.53342209 38.56260254 96.29424591 38.52022461 97.078125 38.4765625 C97.82480942 38.4348291 98.57149384 38.3930957 99.34080505 38.35009766 C114.54973956 37.51623647 129.77127961 37.20334271 145 37 C146.21125549 36.98326233 147.42251099 36.96652466 148.67047119 36.94927979 C157.09389258 36.83759996 165.516917 36.76088997 173.94094849 36.71490479 C176.76522404 36.69892278 179.58917798 36.67398565 182.41329956 36.64056396 C207.23839888 36.35928136 238.3936738 36.09187887 261 48 C262.34237112 48.47245464 263.69655059 48.91330604 265.0625 49.3125 C279.52939291 53.9886674 291.92892447 61.95816776 304 71 C299.86939099 66.46214785 295.25999704 63.35128209 290.0625 60.125 C289.21276611 59.59616211 288.36303223 59.06732422 287.48754883 58.52246094 C270.65106252 48.16496573 252.65955059 40.86793829 233.4375 36.1875 C232.69749756 36.00493652 231.95749512 35.82237305 231.19506836 35.63427734 C214.61032022 31.86050232 198.03362337 30.55172909 181.07299805 30.56762695 C179.07977199 30.55857926 177.08655142 30.54824486 175.09333801 30.53674316 C169.75589354 30.50949963 164.41855553 30.49993377 159.08105063 30.49388909 C153.47568898 30.48441912 147.87040426 30.45820978 142.26509094 30.43388367 C131.68351477 30.39044977 121.10195372 30.3617616 110.52031595 30.33856028 C98.45955403 30.31138371 86.39887039 30.26748061 74.33816469 30.22227156 C49.55881741 30.1297568 24.77944889 30.05851851 0 30 C0 20.1 0 10.2 0 0 Z " fill="#3383EC" transform="translate(124,24)"/>
<path d="M0 0 C29.7 0 59.4 0 90 0 C90 55.11 90 110.22 90 167 C52.05 167 14.1 167 -25 167 C-25 152 -25 152 -22.6171875 148.0859375 C-18.51746857 144.99849485 -14.03715802 145.33873189 -9.125 145.625 C-4.608125 145.810625 -4.608125 145.810625 0 146 C0 139.4 0 132.8 0 126 C-13.53 126 -27.06 126 -41 126 C-41.66 127.65 -42.32 129.3 -43 131 C-47.86247699 135.75196615 -52.24622756 137.97696398 -59 138.375 C-63.96130279 138.22379839 -67.06284385 136.05233841 -70.4453125 132.46875 C-74.73358525 127.4698492 -75.47420031 124.37529247 -75.40625 117.89453125 C-74.6345615 112.39625071 -71.49169002 109.09420613 -67.359375 105.62109375 C-63.49606776 103.03051156 -59.80798997 102.33020696 -55.2734375 102.546875 C-49.91605168 103.61467011 -46.14122368 106.77318454 -42.5 110.6875 C-41 113 -41 113 -41 115 C-6.35 114.505 -6.35 114.505 29 114 C29 107.73 29 101.46 29 95 C26.19435547 95.26103516 26.19435547 95.26103516 23.33203125 95.52734375 C2.36351566 96.90445641 2.36351566 96.90445641 -3.2265625 92.22265625 C-6.04519931 89.15303337 -8.27877797 85.70683872 -10.5 82.19042969 C-13.17467314 78.28464072 -16.51843329 75.00763853 -19.8125 71.625 C-21.07262651 70.29385341 -22.33052562 68.9605939 -23.5859375 67.625 C-24.46330566 66.69494141 -24.46330566 66.69494141 -25.35839844 65.74609375 C-27.57276402 63.39077807 -29.76552001 61.01955038 -31.9375 58.625 C-32.54464844 57.95726562 -33.15179688 57.28953125 -33.77734375 56.6015625 C-35 55 -35 55 -35 53 C-52.16 53 -69.32 53 -87 53 C-87.66 54.65 -88.32 56.3 -89 58 C-92.46570178 61.92171517 -95.31165483 64.65075878 -100.5859375 65.3359375 C-106.60385646 65.42022208 -110.34501686 65.21165141 -115 61 C-120.10611986 55.54605182 -121.3586781 52.16578046 -121.28125 44.76171875 C-120.75680645 39.61197444 -118.11955658 36.98627603 -114.375 33.6875 C-109.23402379 30.03470111 -104.14934973 30.56479045 -98 31 C-92.71966584 32.72810936 -90.17485129 35.61123498 -87 40 C-87 40.66 -87 41.32 -87 42 C-86.31476761 41.96669083 -85.62953522 41.93338165 -84.92353821 41.89906311 C-78.40949586 41.5962905 -71.8974601 41.36908376 -65.37792683 41.22281742 C-62.02562333 41.14504186 -58.68360027 41.03182102 -55.33374023 40.8684082 C-31.88082108 39.75368418 -31.88082108 39.75368418 -25.54394531 45.10913086 C-22.63197007 48.18630753 -20.32783569 51.55500536 -18.14523315 55.17654419 C-16.60278098 57.63245754 -14.72860618 59.6251529 -12.6953125 61.68359375 C-12.09203125 62.32103516 -11.48875 62.95847656 -10.8671875 63.61523438 C-10.29226562 64.21658203 -9.71734375 64.81792969 -9.125 65.4375 C-4.80202727 69.9794164 -0.57467335 74.57409926 3.52392578 79.32055664 C5.70476969 82.06898056 5.70476969 82.06898056 8.8215332 83.26501465 C9.92501099 83.27595154 9.92501099 83.27595154 11.05078125 83.28710938 C11.88504639 83.30052368 12.71931152 83.31393799 13.57885742 83.32775879 C14.48095947 83.33303589 15.38306152 83.33831299 16.3125 83.34375 C17.23716064 83.3583728 18.16182129 83.37299561 19.11450195 83.38806152 C22.07629074 83.4346714 25.03801094 83.46881612 28 83.5 C31.89608669 83.54101808 35.79169066 83.59464075 39.6875 83.65625 C40.58960205 83.6615271 41.4917041 83.6668042 42.42114258 83.67224121 C43.25540771 83.68565552 44.08967285 83.69906982 44.94921875 83.71289062 C46.05269653 83.72382751 46.05269653 83.72382751 47.1784668 83.73498535 C49 84 49 84 51 86 C54.89201406 86.43244601 57.13230302 86.57846465 60.4375 84.375 C62.42854713 81.34860837 62.3789464 79.56209615 62 76 C61.67 75.01 61.34 74.02 61 73 C58.21398777 72.07132926 56.38933911 71.83657783 53.5 71.8125 C52.7265625 71.79832031 51.953125 71.78414063 51.15625 71.76953125 C48.70319944 71.86338472 48.70319944 71.86338472 46 74 C44.65494848 73.71764333 43.32356966 73.37020567 42 73 C39.40761452 72.8613965 36.83613124 72.76787731 34.2421875 72.71875 C33.49792511 72.70034058 32.75366272 72.68193115 31.98684692 72.66296387 C28.81054682 72.58447395 25.63404524 72.51640433 22.45751953 72.44775391 C20.13563433 72.39607216 17.81393278 72.33882669 15.4921875 72.28125 C14.77134979 72.26767456 14.05051208 72.25409912 13.30783081 72.2401123 C8.22571643 72.11285822 8.22571643 72.11285822 6 71 C6 70.34 6 69.68 6 69 C5.38125 68.71125 4.7625 68.4225 4.125 68.125 C2 67 2 67 0 65 C-0.24050903 62.2918396 -0.24050903 62.2918396 -0.22705078 58.80615234 C-0.22680908 57.48671631 -0.22656738 56.16728027 -0.22631836 54.80786133 C-0.21624631 53.40055148 -0.2059131 51.99324347 -0.1953125 50.5859375 C-0.19329834 49.31016846 -0.19128418 48.03439941 -0.18920898 46.7199707 C-0.17871722 41.93827741 -0.15079485 37.15663523 -0.125 32.375 C-0.08375 21.69125 -0.0425 11.0075 0 0 Z " fill="#297CE7" transform="translate(179,140)"/>
<path d="M0 0 C0 3.86400704 -1.55387965 4.9676121 -4.16308594 7.6315918 C-4.76926758 8.2275415 -5.37544922 8.82349121 -6 9.4375 C-6.62938477 10.05858643 -7.25876953 10.67967285 -7.90722656 11.31958008 C-32.22090448 34.79227529 -63.47787434 48.98637689 -95 60 C-95.9580957 60.3403125 -96.91619141 60.680625 -97.90332031 61.03125 C-105.29641593 63.59049205 -112.73186623 65.47298975 -120.375 67.125 C-122.14194214 67.51292725 -122.14194214 67.51292725 -123.94458008 67.90869141 C-131.92776293 69.63177568 -139.87354101 71.12877149 -148 72 C-147.34 70.68 -146.68 69.36 -146 68 C-147.65 67.67 -149.3 67.34 -151 67 C-151 66.67 -151 66.34 -151 66 C-149.48986328 65.75878418 -149.48986328 65.75878418 -147.94921875 65.51269531 C-144.13101026 64.90088545 -140.31435249 64.27980975 -136.49804688 63.65625 C-134.86172286 63.39013945 -133.22501453 63.12637884 -131.58789062 62.86523438 C-82.78502996 55.07116572 -34.60939378 36.13877779 0 0 Z " fill="#E7E6F5" transform="translate(387,288)"/>
<path d="M0 0 C2.8125 1.6875 2.8125 1.6875 5 4 C5.5 7 5.5 7 5 10 C4.50000488 10.58370361 4.00000977 11.16740723 3.48486328 11.76879883 C1.4385759 14.8436131 1.67400634 17.03112194 1.7421875 20.69921875 C1.75636719 21.99021484 1.77054688 23.28121094 1.78515625 24.61132812 C1.81430606 25.97006944 1.8442637 27.32879365 1.875 28.6875 C1.92106016 31.35804292 1.95741575 34.02848079 1.9921875 36.69921875 C2.01651855 37.88346436 2.04084961 39.06770996 2.06591797 40.2878418 C2 43 2 43 1 44 C-1.33297433 44.04092937 -3.66705225 44.04241723 -6 44 C-6.01401855 42.71367676 -6.01401855 42.71367676 -6.02832031 41.40136719 C-6.07241291 38.21027321 -6.13406056 35.02013244 -6.20751953 31.82958984 C-6.23569099 30.45048349 -6.25692472 29.07121682 -6.27099609 27.69189453 C-6.29247545 25.70577051 -6.34123132 23.72000091 -6.390625 21.734375 C-6.41157227 20.54038086 -6.43251953 19.34638672 -6.45410156 18.11621094 C-7.1025878 14.41438699 -8.27391466 13.45895302 -11 11 C-11.5 7.5 -11.5 7.5 -11 4 C-7.59362759 -0.31473839 -5.29556157 -1.60098373 0 0 Z " fill="#F7FBFD" transform="translate(200,156)"/>
<path d="M0 0 C0.33 0 0.66 0 1 0 C1.33 12.87 1.66 25.74 2 39 C8.34605469 38.83371094 14.69210938 38.66742188 21.23046875 38.49609375 C38.46467257 38.08695593 55.6869724 37.92437459 72.92578125 37.97265625 C74.00671932 37.97533886 75.08765739 37.97802147 76.20135117 37.98078537 C86.17196861 38.00677919 96.14250976 38.04649099 106.11303711 38.09594727 C111.66329159 38.12290272 117.21350708 38.13981244 122.76381493 38.15081596 C124.83554773 38.15693576 126.90727362 38.16682298 128.97896767 38.18089485 C139.77509116 38.25393107 150.20722534 38.02097949 160.88542175 36.33421326 C163.68199112 36.03412429 165.38516804 36.07106158 168 37 C155.80622511 40.41425697 143.62611896 41.29605289 131.00830078 41.22705078 C129.56783048 41.22648486 128.12735961 41.22680675 126.68688965 41.22793579 C122.82415332 41.22850324 118.96154442 41.21684899 115.09883738 41.20278788 C111.04432245 41.19017764 106.98980373 41.18910199 102.93527222 41.18673706 C95.27877854 41.18055225 87.62234284 41.16418258 79.96587455 41.14403808 C71.24021019 41.12158503 62.51454287 41.11066214 53.78885674 41.10064721 C35.85919841 41.07981324 17.92961942 41.04317509 0 41 C0 27.47 0 13.94 0 0 Z " fill="#7147BE" transform="translate(154,365)"/>
<path d="M0 0 C9.96818851 0.68674368 19.68996986 4.62310168 29 8 C29.72026367 8.25910156 30.44052734 8.51820312 31.18261719 8.78515625 C44.37506865 13.61773396 70.36697312 23.73394623 77 37 C73.73487016 35.53069157 70.86877481 33.59741359 67.92431641 31.57275391 C60.88020498 26.73070928 53.78913367 22.56299477 46 19 C45.19949219 18.62230469 44.39898437 18.24460937 43.57421875 17.85546875 C38.49006048 15.51096053 33.34634267 13.64949177 28 12 C27.07574219 11.69191406 26.15148437 11.38382813 25.19921875 11.06640625 C13.4014644 7.36430263 1.20545559 5.78840833 -11 4 C-11 3.67 -11 3.34 -11 3 C-10.28972656 2.86722656 -9.57945312 2.73445313 -8.84765625 2.59765625 C-7.92855469 2.42105469 -7.00945312 2.24445312 -6.0625 2.0625 C-4.68771484 1.80146484 -4.68771484 1.80146484 -3.28515625 1.53515625 C-1.04710156 1.22285012 -1.04710156 1.22285012 0 0 Z " fill="#DBF4FD" transform="translate(353,59)"/>
<path d="M0 0 C22.11 0 44.22 0 67 0 C67 0.66 67 1.32 67 2 C45.88 2.33 24.76 2.66 3 3 C2.4031246 11.95313102 1.840979 20.79362791 1.68359375 29.74609375 C1.66281265 30.76808365 1.64203156 31.79007355 1.62062073 32.84303284 C1.5563241 36.04113432 1.49681106 39.23930259 1.4375 42.4375 C1.3942001 44.63346987 1.35058264 46.82943351 1.30664062 49.02539062 C1.20076998 54.35019413 1.09880395 59.67506092 1 65 C0.67 65 0.34 65 0 65 C0 43.55 0 22.1 0 0 Z " fill="#3BB9F5" transform="translate(179,140)"/>
<path d="M0 0 C0.33 0 0.66 0 1 0 C6.00993889 28.71768543 3.55430014 62.19289079 -10.52734375 88.1953125 C-12.0806475 91.1535939 -13.32798128 94.14628836 -14.5625 97.25 C-16.59404177 102.2188665 -18.91672856 106.61226757 -22 111 C-22.49757813 111.71285156 -22.99515625 112.42570312 -23.5078125 113.16015625 C-26.08035258 116.72163762 -28.37071815 119.46340516 -32 122 C-30.37104768 118.46356982 -28.25327162 115.4003676 -26.0625 112.1875 C-16.23589002 97.22716179 -8.6046388 80.2963849 -4 63 C-3.79262207 62.2575 -3.58524414 61.515 -3.37158203 60.75 C1.88848933 41.05695815 0.37542864 20.19517316 0 0 Z " fill="#613FC2" transform="translate(473,219)"/>
<path d="M0 0 C15.84 0 31.68 0 48 0 C48 0.66 48 1.32 48 2 C47.34741211 1.99476318 46.69482422 1.98952637 46.02246094 1.98413086 C31.63410971 1.88459673 17.3645637 2.1487666 3 3 C2.67 15.21 2.34 27.42 2 40 C6.95 40 11.9 40 17 40 C20.98422231 40.13884035 24.95744072 40.29447007 28.9375 40.5 C29.91912109 40.54769531 30.90074219 40.59539062 31.91210938 40.64453125 C34.27491972 40.75979029 36.63751603 40.87826587 39 41 C39 41.33 39 41.66 39 42 C26.13 42 13.26 42 0 42 C0 28.14 0 14.28 0 0 Z " fill="#3963DB" transform="translate(154,317)"/>
<path d="M0 0 C2.875 2.25 2.875 2.25 5 5 C4.91985673 8.44616056 4.4443896 9.5556104 2 12 C-4.90339067 12.79706468 -12.1245749 11.73198442 -19 11 C-18.34 10.67 -17.68 10.34 -17 10 C-16.95875 9.2575 -16.9175 8.515 -16.875 7.75 C-15.65084778 3.90266445 -13.39359788 2.98962533 -10.0078125 1.015625 C-6.23048321 -0.89508632 -4.01477045 -1.33825682 0 0 Z " fill="#F6FAFD" transform="translate(223,188)"/>
<path d="M0 0 C4.15099737 0.84714232 5.59192103 2.20978789 8.0625 5.625 C8.73699963 9.82188661 8.53090345 11.82697931 6.375 15.5 C3.76191101 17.90121691 2.61271006 18.71159049 -0.9375 18.625 C-3.63308448 16.84836478 -5.48392223 15.53215555 -6.9375 12.625 C-7.31919851 8.57899582 -7.29814827 6.27694111 -5.3125 2.6875 C-2.9375 0.625 -2.9375 0.625 0 0 Z " fill="#F7F9FD" transform="translate(196.9375,269.375)"/>
<path d="M0 0 C0 3.86400704 -1.55387965 4.9676121 -4.16308594 7.6315918 C-4.76926758 8.2275415 -5.37544922 8.82349121 -6 9.4375 C-6.62938477 10.05858643 -7.25876953 10.67967285 -7.90722656 11.31958008 C-26.59453822 29.36051869 -52.03483884 45.58584979 -77 53 C-77.33 51.68 -77.66 50.36 -78 49 C-76.8140625 48.5153125 -75.628125 48.030625 -74.40625 47.53125 C-63.69617599 43.11427697 -53.24697583 38.40550306 -43 33 C-42.00057373 32.48034668 -42.00057373 32.48034668 -40.98095703 31.95019531 C-25.03746667 23.6062954 -12.40515289 12.96153018 0 0 Z " fill="#D9D5F2" transform="translate(387,288)"/>
<path d="M0 0 C2.4375 1.625 2.4375 1.625 4 4 C4.64850195 7.80994895 4.28071139 9.50335677 2.375 12.875 C0 15 0 15 -2.9375 15.625 C-7.05634831 14.78441871 -8.51877621 13.35694984 -11 10 C-11.6767545 6.31544773 -11.49791771 4.75683492 -9.4375 1.625 C-6.06489221 -0.62340519 -3.97487617 -0.56783945 0 0 Z " fill="#F9FBFD" transform="translate(234,242)"/>
<path d="M0 0 C2.375 2.0625 2.375 2.0625 4 4 C2.11177771 11.69813704 2.11177771 11.69813704 -1 14 C-3.19140625 14.21484375 -3.19140625 14.21484375 -5.5625 13.9375 C-6.34753906 13.86402344 -7.13257813 13.79054688 -7.94140625 13.71484375 C-10 13 -10 13 -11.2578125 11.09765625 C-12.1724627 8.51256595 -12.3407767 6.72621358 -12 4 C-8.95664066 -1.21718745 -5.61431054 -1.48951096 0 0 Z " fill="#EBF8FD" transform="translate(26,77)"/>
<path d="M0 0 C3.75999106 0.93999776 5.2473603 2.51105689 7.5 5.625 C7.56625411 9.4677383 7.31899419 11.61700716 4.875 14.625 C1.41616747 16.08135054 -0.91298371 15.53805869 -4.5 14.625 C-6.4375 13.4375 -6.4375 13.4375 -7.5 11.625 C-8 8.75 -8 8.75 -7.5 5.625 C-5.20985284 2.6150923 -3.70864386 0.92716097 0 0 Z " fill="#F1F7FD" transform="translate(121.5,252.375)"/>
<path d="M0 0 C2.4375 1.625 2.4375 1.625 4 4 C4.60605429 7.63632575 4.47161336 9.28314769 2.4375 12.375 C-0.93510779 14.62340519 -3.02512383 14.56783945 -7 14 C-9.4375 12.4375 -9.4375 12.4375 -11 10 C-11.5 6.4375 -11.5 6.4375 -11 3 C-8.00347253 -0.71569406 -4.51782131 -0.56472766 0 0 Z " fill="#F1FBFD" transform="translate(79,181)"/>
<path d="M0 0 C2.71077642 1.99741421 3.80305462 3.14657003 4.5625 6.4375 C3.72101232 10.27094386 2.14799562 11.72272657 -1 14 C-4.8427383 14.06625411 -6.99200716 13.81899419 -10 11.375 C-11.46981805 7.88418213 -10.98413921 5.60851044 -10 2 C-6.93926942 -1.62753254 -4.35816069 -1.36192522 0 0 Z " fill="#F1FAFD" transform="translate(93,37)"/>
<path d="M0 0 C0.66 0.33 1.32 0.66 2 1 C-2.62 3.97 -7.24 6.94 -12 10 C-7.56909551 9.1138191 -3.44588981 7.89228006 0.8125 6.4375 C1.50537109 6.20353516 2.19824219 5.96957031 2.91210938 5.72851562 C4.60900114 5.15508324 6.30463078 4.57791831 8 4 C8 4.66 8 5.32 8 6 C-5.8393067 11.23851102 -19.594562 16.22505582 -34 19.6875 C-35.04857178 19.94289551 -36.09714355 20.19829102 -37.17749023 20.46142578 C-45.09609529 22.27562785 -45.09609529 22.27562785 -49 21 C-48.46487793 20.82476807 -47.92975586 20.64953613 -47.37841797 20.46899414 C-32.9851231 15.71836766 -19.10819436 10.50536533 -5.86572266 3.06225586 C-5.12241699 2.64854736 -4.37911133 2.23483887 -3.61328125 1.80859375 C-2.96141846 1.43532959 -2.30955566 1.06206543 -1.63793945 0.67749023 C-1.09741943 0.45391846 -0.55689941 0.23034668 0 0 Z " fill="#841BA1" transform="translate(392,384)"/>
<path d="M0 0 C-0.21508789 1.87060547 -0.21508789 1.87060547 -1 4 C-2.97436523 5.15673828 -2.97436523 5.15673828 -5.55859375 6.0703125 C-6.50283203 6.40933594 -7.44707031 6.74835938 -8.41992188 7.09765625 C-9.91362305 7.60619141 -9.91362305 7.60619141 -11.4375 8.125 C-12.39849609 8.47175781 -13.35949219 8.81851562 -14.34960938 9.17578125 C-20.49440221 11.33868203 -26.57805367 12.9136831 -33 14 C-33 13.01 -33 12.02 -33 11 C-34.32 11.33 -35.64 11.66 -37 12 C-37.33 11.34 -37.66 10.68 -38 10 C-36.58074219 9.67128906 -36.58074219 9.67128906 -35.1328125 9.3359375 C-26.56623706 7.29836329 -18.24358659 4.87634752 -9.94189453 1.93115234 C-6.40174286 0.696031 -3.79282713 0 0 0 Z " fill="#DBDAF1" transform="translate(310,338)"/>
<path d="M0 0 C0 3 0 6 0 9 C3.68802044 7.77065985 4.72356973 6.06140622 7 3 C6.8125 5.1875 6.8125 5.1875 6 8 C5.154375 8.66 4.30875 9.32 3.4375 10 C-0.44904305 14.7834376 0.60895177 20.06475689 1 26 C2.32 25.34 3.64 24.68 5 24 C4.34 25.98 3.68 27.96 3 30 C8.94 30.66 14.88 31.32 21 32 C21 32.33 21 32.66 21 33 C17.91674642 33.0582253 14.83363495 33.09367134 11.75 33.125 C10.44095703 33.15013672 10.44095703 33.15013672 9.10546875 33.17578125 C8.26113281 33.18222656 7.41679687 33.18867188 6.546875 33.1953125 C5.77182617 33.20578613 4.99677734 33.21625977 4.19824219 33.22705078 C1.74116461 32.97326556 0.12688458 32.22444152 -2 31 C-2.04939115 26.90661348 -2.08571501 22.81334202 -2.10986328 18.71972656 C-2.11992877 17.32679219 -2.13358234 15.93387898 -2.15087891 14.54101562 C-2.1751022 12.5404564 -2.18540814 10.53974385 -2.1953125 8.5390625 C-2.20578613 7.33459473 -2.21625977 6.13012695 -2.22705078 4.88916016 C-2 2 -2 2 0 0 Z " fill="#41ABF3" transform="translate(203,168)"/>
<path d="M0 0 C0.99 0 1.98 0 3 0 C1.61219205 3.89006773 -0.2152227 6.96558708 -2.625 10.3125 C-3.25664062 11.19550781 -3.88828125 12.07851563 -4.5390625 12.98828125 C-5.02117187 13.65214844 -5.50328125 14.31601562 -6 15 C-6.33 14.01 -6.66 13.02 -7 12 C-7.59167969 12.61488281 -8.18335938 13.22976563 -8.79296875 13.86328125 C-9.97826172 15.07564453 -9.97826172 15.07564453 -11.1875 16.3125 C-11.96480469 17.11300781 -12.74210937 17.91351563 -13.54296875 18.73828125 C-15.92441888 20.93042691 -18.18225811 22.43062477 -21 24 C-22.43984896 24.89205302 -23.87753723 25.78760809 -25.3125 26.6875 C-26.00988281 27.12449219 -26.70726562 27.56148438 -27.42578125 28.01171875 C-28.20501953 28.50091797 -28.20501953 28.50091797 -29 29 C-29 28.01 -29 27.02 -29 26 C-27.19921875 24.4921875 -27.19921875 24.4921875 -24.6875 22.875 C-15.72078768 16.8253228 -8.00574368 10.70926609 -1.65625 1.87109375 C-1.1096875 1.25363281 -0.563125 0.63617188 0 0 Z " fill="#281B87" transform="translate(395,271)"/>
<path d="M0 0 C16.65627601 4.9968828 31.89247329 14.66094912 45 26 C40.89010148 26 38.81995215 23.83136465 35.6875 21.4375 C28.80313654 16.34485825 21.78084598 12.56701374 14 9 C13.13117188 8.58878906 12.26234375 8.17757812 11.3671875 7.75390625 C6.98302302 5.72530133 2.68075239 4.19508572 -2 3 C-1.34 2.67 -0.68 2.34 0 2 C0 1.34 0 0.68 0 0 Z " fill="#CAEBFD" transform="translate(385,69)"/>
<path d="M0 0 C25.02670612 -0.70513043 49.78327371 -0.84678067 73 10 C72.67 10.66 72.34 11.32 72 12 C71.28714844 11.72285156 70.57429688 11.44570312 69.83984375 11.16015625 C64.49984223 9.14058636 59.67670014 7.73586854 54 7 C52.68039362 6.54076591 51.36842968 6.05929434 50.0625 5.5625 C34.36041476 0.22431182 16.39543011 1.40888846 0 1 C0 0.67 0 0.34 0 0 Z " fill="#2B68E3" transform="translate(304,104)"/>
<path d="M0 0 C0.495 1.485 0.495 1.485 1 3 C-0.47155479 5.10822748 -1.93365761 6.95751712 -3.625 8.875 C-4.06457031 9.39191406 -4.50414062 9.90882813 -4.95703125 10.44140625 C-7.82654904 13.7821645 -10.85901835 16.91084973 -14 20 C-14.56203125 20.58523438 -15.1240625 21.17046875 -15.703125 21.7734375 C-21.28411142 27.55173152 -27.71774417 33.4692093 -35 37 C-35.66 36.67 -36.32 36.34 -37 36 C-35.74509766 35.06994141 -35.74509766 35.06994141 -34.46484375 34.12109375 C-21.48105012 24.3144265 -9.67213362 13.13308878 0 0 Z " fill="#7C26A3" transform="translate(440,341)"/>
<path d="M0 0 C0.66 0.33 1.32 0.66 2 1 C1.3503125 1.5878125 1.3503125 1.5878125 0.6875 2.1875 C-1.11824411 3.94521143 -1.11824411 3.94521143 -2.12109375 6.3515625 C-4.71671415 10.01025404 -7.75382069 11.31702556 -11.75 13.1875 C-12.4409375 13.52974609 -13.131875 13.87199219 -13.84375 14.22460938 C-18.15420259 16.31096566 -22.36102972 17.81596963 -27 19 C-27 18.34 -27 17.68 -27 17 C-25.97261719 16.443125 -24.94523437 15.88625 -23.88671875 15.3125 C-15.47568761 10.69924465 -7.58800646 5.89999655 0 0 Z " fill="#4E22A6" transform="translate(378,357)"/>
<path d="M0 0 C17.82 0 35.64 0 54 0 C54 0.33 54 0.66 54 1 C53.2064209 1.02505615 52.4128418 1.0501123 51.59521484 1.07592773 C38.14531675 1.50381729 24.69489352 1.93379085 11.25 2.5 C10.33524902 2.53536865 9.42049805 2.5707373 8.47802734 2.60717773 C4.10009315 2.68016047 4.10009315 2.68016047 0 4 C0 2.68 0 1.36 0 0 Z " fill="#2F8CF2" transform="translate(123,106)"/>
<path d="M0 0 C2.89624534 1.3903902 5.44882659 3.05360067 8 5 C5 5 5 5 2.9375 4 C-1.4672895 2.50049719 -5.41190721 2.09628475 -10 3 C-13.32018635 4.83369769 -15.74063659 6.9539996 -18 10 C-19.0565109 13.63147485 -19.0565109 13.63147485 -19 17 C-19.33 17.99 -19.66 18.98 -20 20 C-19.60602665 22.63804589 -19.60602665 22.63804589 -19 25 C-19.66 25 -20.32 25 -21 25 C-23.00733035 20.98533929 -22.61109821 16.35407473 -22 12 C-17.96119896 3.27330489 -9.64073056 -1.99066279 0 0 Z " fill="#37A0F7" transform="translate(126,243)"/>
<path d="M0 0 C0.33 0.99 0.66 1.98 1 3 C-0.6171875 5.41015625 -0.6171875 5.41015625 -2.875 8.0625 C-5.73101818 11.33770316 -5.73101818 11.33770316 -8 15 C-8.66 15 -9.32 15 -10 15 C-10 15.66 -10 16.32 -10 17 C-10.66 17 -11.32 17 -12 17 C-12.2475 17.61875 -12.495 18.2375 -12.75 18.875 C-14.22770762 21.38710296 -15.43955177 21.76107344 -18 23 C-18.33 23.99 -18.66 24.98 -19 26 C-20.84765625 27.60546875 -20.84765625 27.60546875 -23.0625 29.1875 C-23.79597656 29.71730469 -24.52945312 30.24710937 -25.28515625 30.79296875 C-25.85105469 31.19128906 -26.41695313 31.58960938 -27 32 C-27 29 -27 29 -24.47265625 26.43359375 C-23.34163526 25.42844771 -22.20450733 24.43014612 -21.0625 23.4375 C-13.12759414 16.3300482 -5.96988945 8.85854564 0 0 Z " fill="#2B1E90" transform="translate(395,279)"/>
<path d="M0 0 C0 3.86522437 -1.55558551 4.96966542 -4.16601562 7.6340332 C-4.77123047 8.22917725 -5.37644531 8.82432129 -6 9.4375 C-6.62068359 10.05133545 -7.24136719 10.6651709 -7.88085938 11.29760742 C-12.51920157 15.78191512 -17.37196849 19.89985517 -22.5 23.8125 C-23.15742188 24.32159912 -23.81484375 24.83069824 -24.4921875 25.35522461 C-28.29431492 28.1646282 -31.14627446 29.66293573 -36 30 C-32.79506823 27.34448511 -29.58794209 25.10025878 -26 23 C-16.18576578 16.8462099 -8.0596689 8.24710306 0 0 Z " fill="#CCC9EF" transform="translate(387,288)"/>
<path d="M0 0 C7.625 0.875 7.625 0.875 11 2 C13.13565085 2.21798936 15.27614925 2.38978389 17.41796875 2.53515625 C19.29838867 2.66567383 19.29838867 2.66567383 21.21679688 2.79882812 C23.18229492 2.9293457 23.18229492 2.9293457 25.1875 3.0625 C26.52281112 3.1539375 27.85809796 3.24573025 29.19335938 3.33789062 C32.46201727 3.5620946 35.7308804 3.78264926 39 4 C39 4.33 39 4.66 39 5 C36.87506859 5.02693575 34.75004088 5.04636628 32.625 5.0625 C31.44164062 5.07410156 30.25828125 5.08570313 29.0390625 5.09765625 C26 5 26 5 24 4 C24.33 5.32 24.66 6.64 25 8 C16.64284994 5.74868611 8.31785366 3.39214186 0 1 C0 0.67 0 0.34 0 0 Z " fill="#1E8BF5" transform="translate(137,36)"/>
<path d="M0 0 C0 0.99 0 1.98 0 3 C0.66 3.33 1.32 3.66 2 4 C-2.0796442 5.03597967 -6.16418941 6.05113854 -10.25 7.0625 C-11.98830078 7.50432617 -11.98830078 7.50432617 -13.76171875 7.95507812 C-14.87675781 8.22900391 -15.99179687 8.50292969 -17.140625 8.78515625 C-18.16704102 9.04176025 -19.19345703 9.29836426 -20.25097656 9.56274414 C-22.9334452 9.98941389 -24.46860856 9.89234196 -27 9 C-25.845 8.62875 -24.69 8.2575 -23.5 7.875 C-18.07364942 6.07779269 -12.74207737 4.03946486 -7.41015625 1.98193359 C-2.21491759 0 -2.21491759 0 0 0 Z " fill="#9844BC" transform="translate(370,396)"/>
<path d="M0 0 C0.66 0.33 1.32 0.66 2 1 C1.62746094 1.54269531 1.25492187 2.08539063 0.87109375 2.64453125 C0.39800781 3.35996094 -0.07507813 4.07539063 -0.5625 4.8125 C-1.03816406 5.52019531 -1.51382812 6.22789062 -2.00390625 6.95703125 C-3.35077091 9.11436427 -3.35077091 9.11436427 -2 12 C-4.34932668 17.58695598 -8.22015027 21.44290253 -13 25 C-11.35821735 20.22390502 -8.73453298 16.20617096 -6 12 C-6.66 11.67 -7.32 11.34 -8 11 C-5.36 7.37 -2.72 3.74 0 0 Z " fill="#4537A4" transform="translate(404,259)"/>
<path d="M0 0 C1.09570312 0.00902344 2.19140625 0.01804688 3.3203125 0.02734375 C4.16335937 0.03894531 5.00640625 0.05054688 5.875 0.0625 C6.205 0.7225 6.535 1.3825 6.875 2.0625 C6.21113281 2.03929687 5.54726562 2.01609375 4.86328125 1.9921875 C-1.47663272 1.86261262 -5.38530009 2.34222331 -10.8125 5.75 C-14.9035473 9.8410473 -15.22378816 14.44309065 -15.25 20 C-15.21834369 21.35443765 -15.18025226 22.70881959 -15.125 24.0625 C-17.68900777 21.49849223 -17.45133634 20.37467985 -17.5 16.8125 C-17.40060578 11.74339494 -16.60623606 8.9200859 -13.125 5.0625 C-8.47546629 0.96648221 -6.15940594 -0.0655256 0 0 Z " fill="#2ECDFB" transform="translate(75.125,170.9375)"/>
<path d="M0 0 C-2.32685006 5.71135924 -6.75614037 9.07319463 -12 12 C-13.44114361 12.88995995 -14.87844322 13.78616502 -16.3125 14.6875 C-17.00988281 15.12449219 -17.70726562 15.56148438 -18.42578125 16.01171875 C-19.20501953 16.50091797 -19.20501953 16.50091797 -20 17 C-20 16.01 -20 15.02 -20 14 C-18.09375 12.421875 -18.09375 12.421875 -15.5 10.75 C-11.19516693 7.88214956 -7.37370004 4.80949492 -3.59375 1.28515625 C-2 0 -2 0 0 0 Z " fill="#342895" transform="translate(386,283)"/>
<path d="M0 0 C13.86 0 27.72 0 42 0 C42 0.33 42 0.66 42 1 C40.83428467 1.0093457 39.66856934 1.01869141 38.4675293 1.02832031 C34.1453622 1.06817182 29.82391058 1.13391648 25.50219727 1.20751953 C23.63119696 1.23575737 21.76007674 1.2569579 19.88891602 1.27099609 C17.20005779 1.29238717 14.51264562 1.33901545 11.82421875 1.390625 C10.56782845 1.39246796 10.56782845 1.39246796 9.28605652 1.39434814 C4.62687313 1.44878606 4.62687313 1.44878606 0.94848633 4.03808594 C0.4789856 5.0092334 0.4789856 5.0092334 0 6 C0 4.02 0 2.04 0 0 Z " fill="#156EEF" transform="translate(124,66)"/>
<path d="M0 0 C0.33 0.99 0.66 1.98 1 3 C-0.44863598 5.11422549 -1.88635397 6.95603675 -3.5625 8.875 C-3.99369141 9.39191406 -4.42488281 9.90882813 -4.86914062 10.44140625 C-7.95329501 14.05856811 -11.28201644 17.04090002 -15 20 C-14.55453859 15.58781079 -11.55431773 13.03447273 -8.625 10 C-4.06793716 5.20799094 -4.06793716 5.20799094 0 0 Z " fill="#661CA3" transform="translate(440,341)"/>
<path d="M0 0 C0.66 0.33 1.32 0.66 2 1 C-6.07744875 15.0022779 -6.07744875 15.0022779 -12 19 C-10.70369101 16.30326081 -9.2862657 13.81034386 -7.6171875 11.328125 C-7.17246094 10.66425781 -6.72773438 10.00039063 -6.26953125 9.31640625 C-5.80933594 8.63449219 -5.34914063 7.95257813 -4.875 7.25 C-4.40707031 6.55261719 -3.93914062 5.85523438 -3.45703125 5.13671875 C-2.30677705 3.42307474 -1.15366914 1.71134684 0 0 Z " fill="#5F24AB" transform="translate(453,322)"/>
<path d="M0 0 C3 1 3 1 3 1 Z M5 2 C5.66 3.32 6.32 4.64 7 6 C1.06 5.34 -4.88 4.68 -11 4 C-11 3.67 -11 3.34 -11 3 C0.20295203 0.32103321 0.20295203 0.32103321 5 2 Z " fill="#CFF0FC" transform="translate(353,59)"/>
<path d="M0 0 C0.99 0 1.98 0 3 0 C1.46781315 3.63061667 -0.7183144 5.9863773 -3.5 8.75 C-4.69109375 9.94882812 -4.69109375 9.94882812 -5.90625 11.171875 C-8 13 -8 13 -10 13 C-10 12.34 -10 11.68 -10 11 C-9.34 11 -8.68 11 -8 11 C-8 10.34 -8 9.68 -8 9 C-7.236875 8.401875 -6.47375 7.80375 -5.6875 7.1875 C-2.88092296 5.16114661 -2.88092296 5.16114661 -1.375 2.25 C-0.92125 1.5075 -0.4675 0.765 0 0 Z " fill="#2B1D8E" transform="translate(382,289)"/>
<path d="M0 0 C0.66 0.33 1.32 0.66 2 1 C-0.22050464 2.51439017 -2.44990229 4.01124868 -4.6875 5.5 C-5.31333984 5.92925781 -5.93917969 6.35851562 -6.58398438 6.80078125 C-10.16388718 9.16239252 -12.54851601 10.6128238 -17 10 C-13.66248862 7.33656727 -10.11898148 5.29524496 -6.375 3.25 C-5.22773438 2.61578125 -4.08046875 1.9815625 -2.8984375 1.328125 C-1.46371094 0.67070312 -1.46371094 0.67070312 0 0 Z " fill="#8B37A1" transform="translate(392,384)"/>
<path d="M0 0 C-0.33 0.99 -0.66 1.98 -1 3 C-3.8359375 4.203125 -3.8359375 4.203125 -7.375 5.25 C-8.53773438 5.60578125 -9.70046875 5.9615625 -10.8984375 6.328125 C-14 7 -14 7 -17 6 C-15.06305322 5.18618205 -13.12542289 4.37399084 -11.1875 3.5625 C-10.10855469 3.11003906 -9.02960938 2.65757812 -7.91796875 2.19140625 C-2.55081967 0 -2.55081967 0 0 0 Z " fill="#3C309C" transform="translate(353,305)"/>
<path d="M0 0 C0.33 0.99 0.66 1.98 1 3 C-1.24195113 4.36118461 -2.47826762 5.06138028 -5.125 4.75 C-7 4 -7 4 -9 2 C-5.86501708 0.14223235 -3.62528568 -0.20140476 0 0 Z " fill="#E8E7F6" transform="translate(295,343)"/>
<path d="M0 0 C0 0.33 0 0.66 0 1 C-0.71027344 1.04898438 -1.42054688 1.09796875 -2.15234375 1.1484375 C-3.53099609 1.26058594 -3.53099609 1.26058594 -4.9375 1.375 C-5.85402344 1.44460937 -6.77054687 1.51421875 -7.71484375 1.5859375 C-8.84599609 1.79089844 -8.84599609 1.79089844 -10 2 C-10.33 2.66 -10.66 3.32 -11 4 C-12.65 4 -14.3 4 -16 4 C-15.01 3.34 -14.02 2.68 -13 2 C-15.64 1.67 -18.28 1.34 -21 1 C-21 0.67 -21 0.34 -21 0 C-13.81949816 -0.71148265 -7.12971149 -1.25818438 0 0 Z " fill="#324FC0" transform="translate(350,127)"/>
<path d="M0 0 C0.66 0.33 1.32 0.66 2 1 C1.67 1.99 1.34 2.98 1 4 C-2.5625 5.6875 -2.5625 5.6875 -6 7 C-6 6.34 -6 5.68 -6 5 C-6.66 4.67 -7.32 4.34 -8 4 C-6.71349294 3.30289269 -5.42059335 2.61757124 -4.125 1.9375 C-3.40570313 1.55464844 -2.68640625 1.17179687 -1.9453125 0.77734375 C-1.30335938 0.52082031 -0.66140625 0.26429688 0 0 Z " fill="#D1CBEE" transform="translate(334,326)"/>
<path d="M0 0 C0.928125 0.20625 1.85625 0.4125 2.8125 0.625 C2.4825 1.615 2.1525 2.605 1.8125 3.625 C-0.5 4.3125 -0.5 4.3125 -3.1875 4.625 C-5 3.1875 -5 3.1875 -6.1875 1.625 C-3.1875 -0.375 -3.1875 -0.375 0 0 Z " fill="#D9D7EF" transform="translate(299.1875,341.375)"/>
<path d="M0 0 C4.92908146 3.87792288 8.5423711 7.76116833 12 13 C8.38522825 11.50198648 6.31379537 9.42462583 3.75 6.5 C3.04359375 5.7059375 2.3371875 4.911875 1.609375 4.09375 C0 2 0 2 0 0 Z " fill="#28A1F4" transform="translate(158,194)"/>
<path d="M0 0 C0.99 0.33 1.98 0.66 3 1 C3 1.99 3 2.98 3 4 C3.66 4 4.32 4 5 4 C5.69710731 5.28650706 6.38242876 6.57940665 7.0625 7.875 C7.44535156 8.59429687 7.82820313 9.31359375 8.22265625 10.0546875 C8.60744141 11.01761719 8.60744141 11.01761719 9 12 C8.67 12.66 8.34 13.32 8 14 C6.66101601 12.04532248 5.32870953 10.0866421 4 8.125 C3.2575 7.03445312 2.515 5.94390625 1.75 4.8203125 C0 2 0 2 0 0 Z " fill="#292495" transform="translate(398,164)"/>
<path d="M0 0 C-1.07401108 2.91517292 -1.77810176 4.77810176 -4 7 C-6.125 6.625 -6.125 6.625 -8 6 C-3.375 0 -3.375 0 0 0 Z " fill="#2F2190" transform="translate(398,271)"/>
<path d="M0 0 C0.66 0.33 1.32 0.66 2 1 C-2.455 4.465 -2.455 4.465 -7 8 C-7.66 7.34 -8.32 6.68 -9 6 C-6.03 4.02 -3.06 2.04 0 0 Z " fill="#2C2193" transform="translate(374,292)"/>
<path d="M0 0 C0.33 0.99 0.66 1.98 1 3 C-0.21484375 4.82421875 -0.21484375 4.82421875 -1.9375 6.6875 C-2.50339844 7.31011719 -3.06929687 7.93273437 -3.65234375 8.57421875 C-4.09707031 9.04472656 -4.54179687 9.51523438 -5 10 C-7 7 -7 7 -6.625 4.8125 C-6.41875 4.214375 -6.2125 3.61625 -6 3 C-6 3.99 -6 4.98 -6 6 C-2.26360784 4.75453595 -1.81243487 3.36595047 0 0 Z " fill="#20A4F7" transform="translate(209,171)"/>
<path d="M0 0 C2.3125 -0.25 2.3125 -0.25 5 0 C6.8125 2 6.8125 2 8 4 C1.25 4.125 1.25 4.125 -1 3 C-0.67 2.01 -0.34 1.02 0 0 Z " fill="#25309B" transform="translate(340,128)"/>
<path d="M0 0 C3.3 0 6.6 0 10 0 C10.33 1.32 10.66 2.64 11 4 C7.37 3.01 3.74 2.02 0 1 C0 0.67 0 0.34 0 0 Z " fill="#1E7AF0" transform="translate(151,40)"/>
<path d="M0 0 C1.28485596 5.13942384 0.22194431 6.37835584 -2 11 C-2.99 10.67 -3.98 10.34 -5 10 C-3.35 6.7 -1.7 3.4 0 0 Z " fill="#703EB9" transform="translate(458,311)"/>
<path d="M0 0 C0.33 0.99 0.66 1.98 1 3 C-0.40445835 5.2636564 -2.1967913 7.0208685 -4 9 C-4.99 8.67 -5.98 8.34 -7 8 C-4.69 5.36 -2.38 2.72 0 0 Z " fill="#6C2CAB" transform="translate(440,341)"/>
<path d="M0 0 C0.66 0.33 1.32 0.66 2 1 C0.90716423 2.03295436 -0.19970579 3.05107835 -1.3125 4.0625 C-1.92738281 4.63097656 -2.54226563 5.19945312 -3.17578125 5.78515625 C-3.77777344 6.18605469 -4.37976563 6.58695312 -5 7 C-5.99 6.67 -6.98 6.34 -8 6 C-5.36 4.02 -2.72 2.04 0 0 Z " fill="#302196" transform="translate(364,311)"/>
<path d="M0 0 C0.66 0 1.32 0 2 0 C1.74476126 1.62752231 1.47025506 3.25203196 1.1875 4.875 C1.03667969 5.77992188 0.88585937 6.68484375 0.73046875 7.6171875 C0 10 0 10 -3 12 C-2.68950274 10.56206608 -2.3765224 9.1246682 -2.0625 7.6875 C-1.88847656 6.88699219 -1.71445312 6.08648437 -1.53515625 5.26171875 C-1 3 -1 3 0 0 Z " fill="#362A97" transform="translate(411,241)"/>
<path d="M0 0 C3.375 -0.125 3.375 -0.125 7 0 C7.66 0.66 8.32 1.32 9 2 C8.01 3.485 8.01 3.485 7 5 C3.34683329 3.75023244 2.21934164 3.32901247 0 0 Z " fill="#ECF9FD" transform="translate(353,60)"/>
<path d="M0 0 C2.33944736 0.28730055 4.6739143 0.61936779 7 1 C6.67 1.66 6.34 2.32 6 3 C2.9375 3.625 2.9375 3.625 0 4 C-0.33 3.01 -0.66 2.02 -1 1 C-0.67 0.67 -0.34 0.34 0 0 Z " fill="#E8E7F8" transform="translate(300,340)"/>
<path d="M0 0 C-5.41538462 4.06153846 -5.41538462 4.06153846 -8.375 3.75 C-8.91125 3.5025 -9.4475 3.255 -10 3 C-3.375 -1.125 -3.375 -1.125 0 0 Z " fill="#D1CDEC" transform="translate(361,314)"/>
<path d="M0 0 C4.95 1.98 4.95 1.98 10 4 C6.71023192 5.09658936 5.28696233 4.79953138 2 4 C2 3.34 2 2.68 2 2 C1.34 2 0.68 2 0 2 C0 1.34 0 0.68 0 0 Z " fill="#335DD6" transform="translate(378,115)"/>
<path d="M0 0 C0.99 0.66 1.98 1.32 3 2 C-1.455 3.485 -1.455 3.485 -6 5 C-6 4.34 -6 3.68 -6 3 C-4.02 2.01 -2.04 1.02 0 0 Z " fill="#5823AF" transform="translate(357,371)"/>
<path d="M0 0 C0.66 0.99 1.32 1.98 2 3 C-0.31 4.98 -2.62 6.96 -5 9 C-3.44455189 5.88910379 -1.80979645 2.96148509 0 0 Z " fill="#642EA5" transform="translate(446,332)"/>
<path d="M0 0 C2.5 2.3125 2.5 2.3125 5 5 C5 5.99 5 6.98 5 8 C2.5 5.6875 2.5 5.6875 0 3 C0 2.01 0 1.02 0 0 Z " fill="#2829AE" transform="translate(431,155)"/>
</svg>
